<svg viewBox="0 0 952 336" fill="none" xmlns="http://www.w3.org/2000/svg">
  <path
    d="M192.57 264H180.969L162.336 238.16C157.766 242.262 152.902 246.129 147.746 249.762C142.707 253.277 137.375 256.383 131.75 259.078C126.125 261.656 120.324 263.707 114.348 265.23C108.488 266.754 102.512 267.516 96.418 267.516C83.1758 267.516 70.6953 265.055 58.9766 260.133C47.375 255.094 37.1797 248.18 28.3906 239.391C19.7188 230.484 12.8633 219.996 7.82422 207.926C2.78516 195.738 0.265625 182.496 0.265625 168.199C0.265625 154.02 2.78516 140.836 7.82422 128.648C12.8633 116.461 19.7188 105.914 28.3906 97.0078C37.1797 88.1016 47.375 81.1289 58.9766 76.0898C70.6953 71.0508 83.1758 68.5312 96.418 68.5312C100.637 68.5312 104.973 68.8828 109.426 69.5859C113.996 70.2891 118.391 71.4609 122.609 73.1016C126.945 74.625 130.988 76.6758 134.738 79.2539C138.488 81.832 141.652 84.9961 144.23 88.7461V0.855469H192.57V264ZM144.23 168.199C144.23 161.637 142.941 155.309 140.363 149.215C137.902 143.004 134.504 137.555 130.168 132.867C125.832 128.062 120.734 124.254 114.875 121.441C109.133 118.512 102.98 117.047 96.418 117.047C89.8555 117.047 83.6445 118.219 77.7852 120.562C72.043 122.906 67.0039 126.305 62.668 130.758C58.4492 135.094 55.1094 140.426 52.6484 146.754C50.1875 153.082 48.957 160.23 48.957 168.199C48.957 175.113 50.1875 181.676 52.6484 187.887C55.1094 194.098 58.4492 199.547 62.668 204.234C67.0039 208.922 72.043 212.613 77.7852 215.309C83.6445 218.004 89.8555 219.352 96.418 219.352C102.98 219.352 109.133 217.945 114.875 215.133C120.734 212.203 125.832 208.395 130.168 203.707C134.504 198.902 137.902 193.453 140.363 187.359C142.941 181.148 144.23 174.762 144.23 168.199ZM378.406 264H183.289L290.867 62.3789H183.289V11.9297H378.406L271.18 213.551H378.406V264ZM522.055 163.277V112.828C522.055 105.914 520.707 99.4102 518.012 93.3164C515.434 87.1055 511.859 81.7148 507.289 77.1445C502.719 72.5742 497.328 69 491.117 66.4219C485.023 63.7266 478.52 62.3789 471.605 62.3789C464.691 62.3789 458.129 63.7266 451.918 66.4219C445.824 69 440.492 72.5742 435.922 77.1445C431.352 81.7148 427.719 87.1055 425.023 93.3164C422.445 99.4102 421.156 105.914 421.156 112.828V163.277H522.055ZM572.504 264H522.055V213.551H421.156V264H370.883V112.828C370.883 98.8828 373.52 85.8164 378.793 73.6289C384.066 61.3242 391.215 50.6016 400.238 41.4609C409.379 32.3203 420.043 25.1133 432.23 19.8398C444.535 14.5664 457.66 11.9297 471.605 11.9297C485.551 11.9297 498.617 14.5664 510.805 19.8398C523.109 25.1133 533.832 32.3203 542.973 41.4609C552.113 50.6016 559.32 61.3242 564.594 73.6289C569.867 85.8164 572.504 98.8828 572.504 112.828V264ZM623.516 335.719H575.176V75.7383H586.777L605.938 98.4141C610.273 94.3125 615.02 90.4453 620.176 86.8125C625.332 83.1797 630.664 80.0742 636.172 77.4961C641.797 74.8008 647.598 72.6914 653.574 71.168C659.551 69.6445 665.586 68.8828 671.68 68.8828C684.922 68.8828 697.344 71.2852 708.945 76.0898C720.664 80.7773 730.859 87.457 739.531 96.1289C748.32 104.801 755.234 115.289 760.273 127.594C765.312 139.781 767.832 153.316 767.832 168.199C767.832 183.668 765.312 197.613 760.273 210.035C755.234 222.34 748.32 232.828 739.531 241.5C730.859 250.055 720.664 256.617 708.945 261.188C697.344 265.758 684.922 268.043 671.68 268.043C667.461 268.043 663.242 267.574 659.023 266.637C654.922 265.699 650.82 264.469 646.719 262.945C642.734 261.305 638.75 259.488 634.766 257.496C630.898 255.504 627.148 253.453 623.516 251.344V335.719ZM719.668 168.199C719.668 160.23 718.379 153.082 715.801 146.754C713.34 140.426 709.941 135.094 705.605 130.758C701.27 126.305 696.172 122.906 690.312 120.562C684.453 118.219 678.242 117.047 671.68 117.047C665.117 117.047 658.906 118.219 653.047 120.562C647.305 122.906 642.266 126.305 637.93 130.758C633.594 135.094 630.137 140.426 627.559 146.754C625.098 153.082 623.867 160.23 623.867 168.199C623.867 175.816 625.098 182.789 627.559 189.117C630.137 195.445 633.594 200.836 637.93 205.289C642.266 209.742 647.305 213.199 653.047 215.66C658.906 218.121 665.117 219.352 671.68 219.352C678.242 219.352 684.453 218.121 690.312 215.66C696.172 213.199 701.27 209.742 705.605 205.289C709.941 200.836 713.34 195.445 715.801 189.117C718.379 182.789 719.668 175.816 719.668 168.199ZM806.891 335.719H758.551V75.7383H770.152L789.312 98.4141C793.648 94.3125 798.395 90.4453 803.551 86.8125C808.707 83.1797 814.039 80.0742 819.547 77.4961C825.172 74.8008 830.973 72.6914 836.949 71.168C842.926 69.6445 848.961 68.8828 855.055 68.8828C868.297 68.8828 880.719 71.2852 892.32 76.0898C904.039 80.7773 914.234 87.457 922.906 96.1289C931.695 104.801 938.609 115.289 943.648 127.594C948.688 139.781 951.207 153.316 951.207 168.199C951.207 183.668 948.688 197.613 943.648 210.035C938.609 222.34 931.695 232.828 922.906 241.5C914.234 250.055 904.039 256.617 892.32 261.188C880.719 265.758 868.297 268.043 855.055 268.043C850.836 268.043 846.617 267.574 842.398 266.637C838.297 265.699 834.195 264.469 830.094 262.945C826.109 261.305 822.125 259.488 818.141 257.496C814.273 255.504 810.523 253.453 806.891 251.344V335.719ZM903.043 168.199C903.043 160.23 901.754 153.082 899.176 146.754C896.715 140.426 893.316 135.094 888.98 130.758C884.645 126.305 879.547 122.906 873.688 120.562C867.828 118.219 861.617 117.047 855.055 117.047C848.492 117.047 842.281 118.219 836.422 120.562C830.68 122.906 825.641 126.305 821.305 130.758C816.969 135.094 813.512 140.426 810.934 146.754C808.473 153.082 807.242 160.23 807.242 168.199C807.242 175.816 808.473 182.789 810.934 189.117C813.512 195.445 816.969 200.836 821.305 205.289C825.641 209.742 830.68 213.199 836.422 215.66C842.281 218.121 848.492 219.352 855.055 219.352C861.617 219.352 867.828 218.121 873.688 215.66C879.547 213.199 884.645 209.742 888.98 205.289C893.316 200.836 896.715 195.445 899.176 189.117C901.754 182.789 903.043 175.816 903.043 168.199Z"
    fill="url(#paint0_linear_13_5)" />
  <defs>
    <linearGradient id="paint0_linear_13_5" x1="-101.034" y1="116.096" x2="1079.49" y2="126.878"
      gradientUnits="userSpaceOnUse">
      <stop stop-color="#F472B6" />
      <stop offset="0.988499" stop-color="#5B21B6" />
    </linearGradient>
  </defs>
</svg>