<svg width="1em" height="1em" viewBox="0 0 512 512" fill="none" xmlns="http://www.w3.org/2000/svg">
  <path
    d="M502 256C502 120.138 391.862 10 256 10C120.138 10 10 120.138 10 256C10 391.862 120.138 502 256 502C391.862 502 502 391.862 502 256Z"
    fill="#0C1827" fill-opacity="0.9" stroke="url(#paint0_linear_0_1)" stroke-width="20" />
  <path
    d="M238.215 393H226.613L207.98 367.16C203.41 371.262 198.547 375.129 193.391 378.762C188.352 382.277 183.02 385.383 177.395 388.078C171.77 390.656 165.969 392.707 159.992 394.23C154.133 395.754 148.156 396.516 142.062 396.516C128.82 396.516 116.34 394.055 104.621 389.133C93.0195 384.094 82.8242 377.18 74.0352 368.391C65.3633 359.484 58.5078 348.996 53.4688 336.926C48.4297 324.738 45.9102 311.496 45.9102 297.199C45.9102 283.02 48.4297 269.836 53.4688 257.648C58.5078 245.461 65.3633 234.914 74.0352 226.008C82.8242 217.102 93.0195 210.129 104.621 205.09C116.34 200.051 128.82 197.531 142.062 197.531C146.281 197.531 150.617 197.883 155.07 198.586C159.641 199.289 164.035 200.461 168.254 202.102C172.59 203.625 176.633 205.676 180.383 208.254C184.133 210.832 187.297 213.996 189.875 217.746V129.855H238.215V393ZM189.875 297.199C189.875 290.637 188.586 284.309 186.008 278.215C183.547 272.004 180.148 266.555 175.812 261.867C171.477 257.062 166.379 253.254 160.52 250.441C154.777 247.512 148.625 246.047 142.062 246.047C135.5 246.047 129.289 247.219 123.43 249.562C117.688 251.906 112.648 255.305 108.312 259.758C104.094 264.094 100.754 269.426 98.293 275.754C95.832 282.082 94.6016 289.23 94.6016 297.199C94.6016 304.113 95.832 310.676 98.293 316.887C100.754 323.098 104.094 328.547 108.312 333.234C112.648 337.922 117.688 341.613 123.43 344.309C129.289 347.004 135.5 348.352 142.062 348.352C148.625 348.352 154.777 346.945 160.52 344.133C166.379 341.203 171.477 337.395 175.812 332.707C180.148 327.902 183.547 322.453 186.008 316.359C188.586 310.148 189.875 303.762 189.875 297.199ZM460.051 393H264.934L372.512 191.379H264.934V140.93H460.051L352.824 342.551H460.051V393Z"
    fill="url(#paint1_linear_0_1)" />
  <defs>
    <linearGradient id="paint0_linear_0_1" x1="0" y1="256" x2="512" y2="256" gradientUnits="userSpaceOnUse">
      <stop stop-color="#F472B6" />
      <stop offset="1" stop-color="#5B21B6" stop-opacity="0" />
    </linearGradient>
    <linearGradient id="paint1_linear_0_1" x1="-4" y1="240" x2="528.978" y2="242.253" gradientUnits="userSpaceOnUse">
      <stop stop-color="#F472B6" />
      <stop offset="0.988499" stop-color="#5B21B6" />
    </linearGradient>
  </defs>
</svg>